{"title":"Life As We Know It 2010 PPVRip IFLIX","uid":6100257,"size":1181440522,"categoryP":"video","categoryS":"movies","magnet":"?xt=urn:btih:20351821fd73472b58d141e3fc5bbb647f2cb41c&amp;dn=Life+As+We+Know+It+2010+PPVRip+IFLIX&amp;tr=udp%3A%2F%2Ftracker.openbittorrent.com%3A80&amp;tr=udp%3A%2F%2Fopen.demonii.com%3A1337&amp;tr=udp%3A%2F%2Ftracker.coppersurfer.tk%3A6969&amp;tr=udp%3A%2F%2Fexodus.desync.com%3A6969","seeders":0,"leechers":1,"uploader":"IwannaFan2","files":7,"time":1294938587,"description":"Filname:\nLife As We Know It 2010 PPVRip IFLIX\n &lt;a href=&quot;\nhttp://www.imdb.com/title/tt1055292/&quot; rel=&quot;nofollow&quot; target=&quot;_NEW&quot;&gt;\nhttp://www.imdb.com/title/tt1055292/&lt;/a&gt;\n\nVideo\nFormat                           : AVI\nFormat/Info                      : Audio Video Interleave\nFile size                        : 1.09 GiB\nDuration                         : 1h 54mn\nOverall bit rate                 : 1 365 Kbps\n\nVideo\nID                               : 0\nFormat                           : MPEG-4 Visual\nFormat profile                   : Simple@L3\nFormat settings, BVOP            : No\nFormat settings, QPel            : No\nFormat settings, GMC             : No warppoints\nFormat settings, Matrix          : Default (H.263)\nCodec ID                         : XVID\nCodec ID/Hint                    : XviD\nDuration                         : 1h 54mn\nBit rate                         : 1 224 Kbps\nWidth                            : 352 pixels\nHeight                           : 240 pixels\nDisplay aspect ratio             : 1.467\nFrame rate                       : 29.970 fps\nOriginal frame rate              : 29.000 fps\nResolution                       : 24 bits\nColorimetry                      : 4:2:0\nScan type                        : Progressive\nBits/(Pixel*Frame)               : 0.483\nStream size                      : 1 004 MiB (90%)\nWriting library                  : XviD 1.2.1 (UTC 2008-12-04)\n\nAudio\nID                               : 1\nFormat                           : MPEG Audio\nFormat version                   : Version 1\nFormat profile                   : Layer 3\nFormat_Settings_Mode             : Joint stereo / MS Stereo\nCodec ID                         : 55\nCodec ID/Hint                    : MP3\nDuration                         : 1h 54mn\nBit rate mode                    : Constant\nBit rate                         : 128 Kbps\nChannel(s)                       : 2 channels\nSampling rate                    : 44.1 KHz\nResolution                       : 16 bits\nStream size                      : 105 MiB (9%)\nAlignment                        : Aligned on interleaves\nInterleave, duration             : 26 ms (0.78 video frame)\nWriting library                  : LAME3.98.2\n\nRelease notes...\n\nAnother quality release from IFLIX\nMore to come very soon!\n\nVideo source: Ours\nAudio source: Ours\n\nGreetings to all other groups out there. You all do awesome work and we greatly appreciate it.\nIFLIX :-)\n","torrent":{"xt":"urn:btih:20351821fd73472b58d141e3fc5bbb647f2cb41c","amp;dn":"Life+As+We+Know+It+2010+PPVRip+IFLIX","amp;tr":["udp%3A%2F%2Ftracker.openbittorrent.com%3A80","udp%3A%2F%2Fopen.demonii.com%3A1337","udp%3A%2F%2Ftracker.coppersurfer.tk%3A6969","udp%3A%2F%2Fexodus.desync.com%3A6969"],"infoHash":"20351821fd73472b58d141e3fc5bbb647f2cb41c","infoHashBuffer":{"type":"Buffer","data":[32,53,24,33,253,115,71,43,88,209,65,227,252,91,187,100,127,44,180,28]},"announce":[],"urlList":[]}}